<svg width="1367.025" height="462" xmlns="http://www.w3.org/2000/svg" xmlns:xlink="http://www.w3.org/1999/xlink" stroke="null" style="vector-effect: non-scaling-stroke;">
 <defs stroke="null" style="vector-effect: non-scaling-stroke;">
  <linearGradient stroke="null" style="vector-effect: non-scaling-stroke;" id="linear-gradient-2" x1="0.814" y1="0.106" x2="0.213" y2="0.854" gradientUnits="objectBoundingBox">
   <stop stroke="null" style="vector-effect: non-scaling-stroke;" offset="0" stop-color="#fff" stop-opacity="0"/>
   <stop stroke="null" style="vector-effect: non-scaling-stroke;" offset="1" stop-color="#fff" stop-opacity="0.2"/>
  </linearGradient>
  <linearGradient stroke="null" style="vector-effect: non-scaling-stroke;" id="linear-gradient-3" x1="0.093" y1="0.119" x2="0.916" y2="0.851" xlink:href="#linear-gradient-2"/>
  <linearGradient stroke="null" style="vector-effect: non-scaling-stroke;" id="svg_5" x1="1" y1="0.01" x2="0" y2="1" gradientUnits="objectBoundingBox">
   <stop stroke="null" style="vector-effect: non-scaling-stroke;" offset="0" stop-color="#073b4c" stop-opacity="0.99609"/>
   <stop stroke="null" style="vector-effect: non-scaling-stroke;" offset="1" stop-color="#0f4656" stop-opacity="0.99609"/>
  </linearGradient>
 </defs>
 <g stroke="null">
  <title stroke="null">Layer 1</title>
  <path transform="rotate(0.420106 216.615 203.467)" stroke="null" id="Path_152" d="m-1010.03239,432.31029s248.55538,-111.87563 556.33334,-120.25367s374.17904,79.84054 674.7785,86.74051s286.24248,-114.33941 552.74409,-124.20047s338.28656,91.66906 513.26237,84.76909s155.53465,-43.29695 155.53465,-43.29695l0,-340.78823l-2452.65295,-0.65681l0,457.68652z" fill="url(#svg_5)"/>
  <path stroke="null" id="Path_351" d="m217.32551,376.00152c-41.333,-68 -80,121.334 -138.667,125.333c-29.536,2.013 -33.726,-20.643 -42.515,-43.3c-8.667,-22.346 -21.808,-44.691 -68.152,-43.367c-93.333,2.667 -32,-141.333 69.334,-145.333c67.471,-2.664 70.511,-49.656 65.009,-80.768l208.324,0.1l0,344s6.592,22.366 -36.815,35.5c-8.183,-49.257 -26.858,-143.369 -56.518,-192.165z" fill="url(#linear-gradient-2)"/>
  <path stroke="rgba(0,0,0,0)" style="vector-effect: non-scaling-stroke;" id="Path_195" d="m419.50178,789.00336a139.59174,131.64343 0 0 1 -99.34881,-38.80854a139.5738,131.62651 0 0 1 -41.1517,-93.69192a139.58576,131.63779 0 0 1 41.1517,-93.69755a139.59174,131.64343 0 0 1 99.34881,-38.8029a139.59174,131.64343 0 0 1 99.34881,38.80854a139.58576,131.63779 0 0 1 41.1517,93.69192a139.5738,131.62651 0 0 1 -41.1517,93.69192a139.59174,131.64343 0 0 1 -99.34881,38.80854zm0,-227.14524a100.47281,94.75192 0 0 0 -100.35323,94.64479a100.44292,94.72373 0 0 0 100.35323,94.64479a100.44292,94.72373 0 0 0 100.35921,-94.64479a100.47281,94.75192 0 0 0 -100.35921,-94.64479z" fill="#fff" opacity="0.2"/>
  <path transform="rotate(174.712 1145.77 195.074)" stroke="null" id="Path_355" d="m848.00758,370.14718l0,-350.14706l5.63906,0c77.34026,52.64919 88.30344,162.00916 183.72397,105.8132c52.5535,-30.95138 116.38014,-73.41198 175.63215,-105.63209l230.52081,0.11497c-36.01006,23.65535 -95.02885,49.78511 -85.23076,105.51712c13.95314,79.3599 59.79917,185.1731 -29.89958,187.20797c-38.26349,0.86787 -70.72348,-20.85029 -103.87813,-42.56946c-44.56832,-29.19529 -90.39641,-58.39159 -153.25829,-32.7207c-94.14781,38.44478 -182.41736,132.41403 -223.15056,132.41606l-0.09867,0z" fill="url(#linear-gradient-3)"/>
  <path stroke="rgba(0,0,0,0)" style="vector-effect: non-scaling-stroke;" transform="translate(-90.0007 -326.003)" id="Path_342" d="m1017.62255,269.00092a57.26684,96.03246 0 0 1 -40.75824,-28.27419a57.25692,96.01583 0 0 1 -16.86069,-68.34039a57.26684,96.03246 0 0 1 16.86069,-68.3487a57.26684,96.03246 0 0 1 40.75824,-28.27419a57.26188,96.02415 0 0 1 40.75824,28.27419a57.26188,96.02415 0 0 1 16.86069,68.3487a57.25692,96.01583 0 0 1 -16.86069,68.34039a57.26684,96.03246 0 0 1 -40.75824,28.27419zm0,-165.69508a41.21943,69.12208 0 0 0 -41.15992,69.02229a41.21447,69.11377 0 0 0 41.15992,69.02229a41.21447,69.11377 0 0 0 41.15992,-69.02229a41.21943,69.12208 0 0 0 -41.15992,-69.02229z" fill="#fff" opacity="0.2"/>
  <circle stroke="null" id="Ellipse_80" cx="47.49695" cy="148.50023" r="13.5" fill="#fff" opacity="0.2"/>
  <circle stroke="null" id="Ellipse_81" cx="569.49481" cy="153.49879" r="18.5" fill="#fff" opacity="0.2"/>
  <circle stroke="null" style="vector-effect: non-scaling-stroke;" id="Ellipse_68" cx="622.5" cy="375.5" r="8.5" fill="#fff" opacity="0.2"/>
  <g stroke="null" style="vector-effect: non-scaling-stroke;" id="Path_343" transform="matrix(0.259 0.966 -0.966 0.259 710.181 49.242)" fill="none" opacity="0.2">
   <path stroke="null" style="vector-effect: non-scaling-stroke;" d="m-192.64662,-120.95697a8.165,8.165 0 0 1 14.178,0l13.147,23.007a8.165,8.165 0 0 1 -7.09,12.216l-26.293,0a8.165,8.165 0 0 1 -7.089,-12.216l13.147,-23.007z" id="svg_1"/>
   <path stroke="null" style="vector-effect: non-scaling-stroke;" d="m-185.55757,-120.07059c-0.55225,0 -1.92549,0.15539 -2.74796,1.5947l-13.14681,23.00693c-0.81615,1.42826 -0.2645,2.68487 0.01056,3.15884c0.27505,0.47398 1.0924,1.57638 2.73739,1.57638l26.29364,0c1.64499,0 2.46233,-1.1024 2.73739,-1.57638c0.27505,-0.47397 0.8267,-1.73058 0.01055,-3.15884l-13.14681,-23.00693c-0.82246,-1.43931 -2.19571,-1.5947 -2.74795,-1.5947m-0.00001,-5c2.76096,0 5.52193,1.37134 7.08917,4.114l13.14682,23.00694c3.1104,5.44322 -0.81993,12.21591 -7.08916,12.21591l-26.29364,0c-6.26924,0 -10.19957,-6.77269 -7.08917,-12.21591l13.14682,-23.00694c1.56724,-2.74266 4.3282,-4.114 7.08916,-4.114z" fill="#fff" id="svg_2"/>
  </g>
  <g stroke="null" style="vector-effect: non-scaling-stroke;" id="Path_344" transform="matrix(-0.839 0.545 -0.545 -0.839 181.642 48.728)" fill="none" opacity="0.2">
   <path stroke="null" style="vector-effect: non-scaling-stroke;" d="m-185.24121,200.16342a7.321,7.321 0 0 1 12.712,0l11.787,20.627a7.32,7.32 0 0 1 -6.356,10.952l-23.574,0a7.321,7.321 0 0 1 -6.356,-10.952l11.787,-20.627z" id="svg_3"/>
   <path stroke="null" style="vector-effect: non-scaling-stroke;" d="m-178.88555,200.4748c-0.57938,0 -2.02012,0.16302 -2.883,1.67307l-11.78714,20.62747c-0.85626,1.49846 -0.2775,2.81682 0.01107,3.3141c0.28858,0.49725 1.14609,1.65384 2.87194,1.65384l23.57426,0c1.72585,0 2.58336,-1.15659 2.87194,-1.65384c0.28857,-0.49728 0.86732,-1.81564 0.01106,-3.3141l-11.78712,-20.62747c-0.86288,-1.51004 -2.30363,-1.67307 -2.88301,-1.67307m0,-4c2.47541,0 4.95083,1.22951 6.35598,3.68851l11.78712,20.62748c2.78873,4.88027 -0.73512,10.95249 -6.35597,10.95249l-23.57426,0c-5.62085,0 -9.1447,-6.07222 -6.35598,-10.95249l11.78714,-20.62748c1.40515,-2.459 3.88056,-3.68851 6.35597,-3.68851z" fill="#fff" id="svg_4"/>
  </g>
  <path transform="rotate(-143.513 754.095 631.345)" stroke="null" id="Path_349" d="m660.66514,637.33624c49.333,-36 85.334,-4 98.667,-49.334c11.337,-38.546 88.224,-26 105.256,-2.529c-99.087,16.29 -120.5,88.257 -204.39,113.885c-15.591,-16.863 -28.035,-41.223 0.467,-62.022z" fill="#fff" opacity="0.16"/>
  <circle stroke="null" id="Ellipse_82" cx="295.5" cy="294.5" r="9.5" fill="#fff" opacity="0.2"/>
 </g>
</svg>